<svg width="1280" height="720" xmlns="http://www.w3.org/2000/svg" xmlns:xlink="http://www.w3.org/1999/xlink" overflow="hidden"><defs><clipPath id="clip0"><rect x="0" y="0" width="1280" height="720"/></clipPath></defs><g clip-path="url(#clip0)"><rect x="0" y="0" width="1280" height="720" fill="#FFFFFF"/><rect x="484.5" y="113.5" width="200" height="84" stroke="#000000" stroke-width="1.33333" stroke-miterlimit="8" fill="#FFFFFF"/><text font-family="Calibri,Calibri_MSFontService,sans-serif" font-style="italic" font-weight="400" font-size="21" transform="translate(535.788 143)">DNAgen.py<tspan font-style="normal" font-size="16" x="-27.1467" y="21">generate random AGCT </tspan><tspan font-style="normal" font-size="16" x="-24.4333" y="40">sequence of length Nb</tspan></text><rect x="484.5" y="391.5" width="200" height="81" stroke="#000000" stroke-width="1.33333" stroke-miterlimit="8" fill="#FFFFFF"/><text font-family="Calibri,Calibri_MSFontService,sans-serif" font-style="italic" font-weight="400" font-size="21" transform="translate(549.568 419)">BASE.py<tspan font-style="normal" font-size="16" x="-37.0067" y="21">count each of AGCT in </tspan><tspan font-style="normal" font-size="16" x="-20.0867" y="40">DNAseqNNN.seq</tspan></text><rect x="899.5" y="113.5" width="200" height="71" stroke="#000000" stroke-width="1.33333" stroke-miterlimit="8" fill="#E7E6E6"/><text font-family="Calibri,Calibri_MSFontService,sans-serif" font-weight="400" font-size="21" transform="translate(940.152 156)">combined.csv</text><rect x="116.5" y="310.5" width="239" height="100" stroke="#000000" stroke-width="1.33333" stroke-miterlimit="8" fill="#FFFFFF"/><text font-family="Calibri,Calibri_MSFontService,sans-serif" font-style="italic" font-weight="400" font-size="21" transform="translate(176.021 338)">DNAnalyze.sh<tspan font-style="normal" font-size="16" x="-21.1933" y="21">from NNN of 001 to 100;</tspan><tspan font-style="normal" font-size="16" x="-44.5533" y="40">concatenate </tspan><tspan font-style="normal" font-size="16" x="39.04" y="40">DNAseqNNN.count</tspan><tspan font-style="normal" font-size="16" x="-14.7267" y="59">files into combined.csv</tspan></text><rect x="899.5" y="280.5" width="200" height="160" stroke="#000000" stroke-width="1.33333" stroke-miterlimit="8" fill="#FFFFFF"/><text font-family="Calibri,Calibri_MSFontService,sans-serif" font-style="italic" font-weight="400" font-size="21" transform="translate(942.572 310)">histograms.R<tspan font-style="normal" font-size="16" x="-26.7133" y="21">divide each cell by sum of </tspan><tspan font-style="normal" font-size="16" x="-11.1866" y="40">its column; plot each </tspan><tspan font-style="normal" font-size="16" x="-12.6866" y="59">column as histogram, </tspan><tspan font-style="normal" font-size="16" x="-24.36" y="78">obtaining distribution for </tspan><tspan font-style="normal" font-size="16" x="-20.5667" y="97">each of AGCT among all </tspan><tspan font-style="normal" font-size="16" x="-13.3333" y="117">DNAseqNNN.seq</tspan><tspan font-style="normal" font-size="16" x="100.167" y="117">files</tspan></text><path d="M0.333333-1.82417e-06 0.333822 89.2552-0.332845 89.2552-0.333333 1.82417e-06ZM4.00048 87.9219 0.000524934 95.9219-3.99952 87.9219Z" transform="matrix(-1 0 0 1 999.501 184.5)"/><rect x="484.5" y="259.5" width="200" height="70" stroke="#000000" stroke-width="1.33333" stroke-miterlimit="8" fill="#E7E6E6"/><text font-family="Calibri,Calibri_MSFontService,sans-serif" font-weight="400" font-size="21" transform="translate(511.151 301)">DNAseqNNN.seq</text><rect x="484.5" y="533.5" width="200" height="70" stroke="#000000" stroke-width="1.33333" stroke-miterlimit="8" fill="#E7E6E6"/><text font-family="Calibri,Calibri_MSFontService,sans-serif" font-weight="400" font-size="21" transform="translate(501.508 575)">DNAseqNNN.count</text><path d="M417.495 646.5C409.488 646.5 402.997 645.418 402.997 644.084L402.998 362.916C402.998 361.582 396.507 360.5 388.5 360.5 396.507 360.5 402.998 359.418 402.998 358.084L402.998 76.9159C402.998 75.5817 409.489 74.5001 417.496 74.5001" stroke="#000000" stroke-width="0.666667" stroke-miterlimit="8" fill="none" fill-rule="evenodd"/><path d="M584.833 197.5 584.833 252.631 584.167 252.631 584.167 197.5ZM588.5 251.298 584.5 259.298 580.5 251.298Z"/><path d="M0.333333-1.15551e-06 0.33352 53.9053-0.333146 53.9053-0.333333 1.15551e-06ZM4.00018 52.572 0.000209974 60.572-3.99982 52.572Z" transform="matrix(-1 0 0 1 584.5 472.5)"/><path d="M0-0.333333 30.915-0.333333 30.915 0.000209974 30.5816-0.333123 54.4965-0.333123 54.4965 0.333543 30.2483 0.333543 30.2483 0 30.5816 0.333333 0 0.333333ZM53.1631-3.99979 61.1631 0.000209974 53.1631 4.00021Z" transform="matrix(1.83697e-16 1 1 -1.83697e-16 584.5 329.5)"/><path d="M0-0.333333 107.787-0.333333 107.787 419.276 107.454 418.943 208.241 418.943 208.241 419.609 107.121 419.609 107.121 0 107.454 0.333333 0 0.333333ZM206.908 415.276 214.908 419.276 206.908 423.276Z" transform="matrix(1 0 0 -1 684.5 568.776)"/><rect x="899.5" y="533.5" width="200" height="70" stroke="#000000" stroke-width="1.33333" stroke-miterlimit="8" fill="#E7E6E6"/><text font-family="Calibri,Calibri_MSFontService,sans-serif" font-weight="400" font-size="21" transform="translate(934.679 575)">histograms.pdf</text><path d="M999.833 440.5 999.833 526.141 999.167 526.141 999.167 440.5ZM1003.5 524.808 999.5 532.808 995.5 524.808Z"/></g></svg>